<svg enable-background="new 0 0 121 25" viewBox="0 0 121 25" xmlns="http://www.w3.org/2000/svg"><g fill="#ed1b3b"><path d="m59.4 21.9c0 .8-.3.8-.9.8h-.2l-.1-.1c-.2-.1-.4-.2-.6-.3l-.1-.1-.1-.2s0 0 0-.1c-.1-.3-.2-.6-.3-.9s-.2-.6-.2-.9c-.3-1.5-.5-2.6-.5-3.5 0-.2-.1-.6-.1-1-.1-.6-.1-1.2-.2-1.7v-7h1.3c.9 0 1.5.6 1.6 1.7v.1 3.2c-.1 1-.1 1.4-.1 1.4v3.6c0 1.2.2 2.9.5 5z"/><path d="m19.1 3.2c0 .2-.3.9-1 2.1-.7 1.2-1 1.9-1.3 2.3-.1.1 0 .1 0 0 0 .1-.1.2-.2.4-.3.5-.7 1.3-1.3 2.3-.1.4-.3.8-.6 1.3-.2.5-.5 1-.9 1.6-.1.2-.2.3-.2.4-.1.2-.2.3-.2.4-.4.6-.8 1.3-1.2 1.9-.2.4-.4 1-.8 1.7-.2.3-.4.7-.4.8-.4.8-.9 1.1-1.5 1.1-.1 0-.1 0-.2 0s-.2-.1-.3-.2c-.1 0-.1-.1-.2-.2-.4-.4-1.3-1.2-2.5-2.5-1.7-1.8-3-3.3-3.9-4.4-.9-1.3-1.4-2.2-1.4-2.8 0-.2 0-.4.2-.6.1-.1.2-.2.2-.3.2-.1.4-.2.6-.2h1.2l.2.4c.2.4.6 1 1 1.7.3.4.6.9.8 1.2.1.1.2.3.3.4l.5.5c.7.8 1.8 1.9 3.2 3.1l8.5-13.2.5-.7.6.6c.3.3.3.6.3.9"/><path d="m56.1 3c0-.5.2-.9.5-1.2s.7-.6 1.2-.6c.5 0 .9.2 1.3.5.3.3.5.8.5 1.3s-.2.9-.6 1.2c-.3.3-.8.5-1.2.5-.5 0-.9-.2-1.2-.5-.4-.3-.5-.7-.5-1.2z"/><path d="m23 13.1 1.5-3.6 2.9 4zm11.5 6.3c0-.1 0-.1 0-.1v-.3l-.1-.2c-.7-1-1.5-2.1-2.3-3.3-.7-1-1.5-2.1-2.3-3.3-1-1.2-1.8-2.4-2.5-3.4-.7-1.1-1.3-2-1.8-2.8l-.1-.1-.1-.1c-.3-.2-.7-.3-1-.3s-.5 0-.7.1c-.3.1-.5.3-.6.6-.2.7-.4 1.2-.6 1.6-.2.5-.3.9-.4 1.1-.5 1.2-.9 2.1-1.2 2.9-.3.7-.6 1.2-.8 1.6-.2.2-.3.3-.3.3l-.3.1-.1.2c-.2.6 0 .1-.2.5-.3.8-.5 1.3-.6 1.4v.1c-.6 1.4-1 2.2-1 2.2l-.1.1v.2c0 .3.1.5.2.7v.1l.1.1c.1.1.3.2.4.4.2.1.4.2.7.2.7 0 1.4-.9 2-2.6.4-1.1.7-1.7.8-1.7h7.1l4.6 4.5 1.2 1.2v-1.7c.1-.1.1-.2 0-.3"/><path d="m67.7 13.2 1.5-3.6 2.9 4zm11.5 6.2c0-.1 0-.1 0-.1v-.2l-.2-.2c-.7-1-1.5-2.1-2.3-3.3-.7-1-1.5-2.1-2.3-3.3-.9-1.3-1.7-2.5-2.4-3.6s-1.3-2-1.8-2.8l-.2-.1-.1-.1c-.3-.2-.7-.3-1-.3s-.5 0-.7.1c-.3.1-.5.3-.6.6-.2.7-.4 1.2-.6 1.6-.2.5-.3.9-.4 1.1-.5 1.2-.9 2.1-1.2 2.9-.3.7-.6 1.2-.8 1.6-.2.2-.3.3-.3.3l-.3.2v.3c-.2.6 0 .1-.2.5-.3.8-.5 1.3-.6 1.4v.1c-.6 1.4-1 2.2-1 2.2l-.1.1v.2c0 .3.1.5.2.7v.1l.1.1c.1.1.3.2.4.4.2.1.4.2.7.2.7 0 1.4-.9 2-2.6.4-1.1.7-1.7.8-1.7h7.1l4.6 4.5 1.2 1.2v-1.7c0-.2 0-.3 0-.4"/><path d="m96.5 2.9v13.7c0 .4-.1.8-.4 1.3 0 .1-.1.1-.1.1s-.1.1-.1.1c-.3.2-.6.4-.9.4-.2 0-.5-.1-.9-.3h-.1l-.1-.1s0 0-.1-.1c0 0-.1-.1-.1-.1-.1-.1-.2-.1-.2-.2-.5-.2-1.2-.5-1.9-1-.7-.4-1.4-1-2.3-1.6-.7-.5-1.4-1-2.1-1.5-1-.8-2.1-1.6-3.2-2.3-.5-.4-1-.7-1.5-1l.2 4.2v.5.1c0 .2.1.4.2.7.2.6.3 1 .4 1.1l.2.2-.1 1.9c-.3.1-.5.1-.8.1-.4 0-.8-.2-1.2-.6-.2-.2-.3-.4-.4-.5-.1-.2-.2-.4-.3-.6 0-.1 0-.2-.1-.5 0-.2-.1-.4-.1-.5-.2-1-.3-2.1-.4-3.3 0-.7-.1-1.3-.1-2 0-.3-.2-2-.2-2-.1 0-.3-.9-.3-1 0-.3.1-.5.3-.8 0 0 .1-.1.1-.1.2-.2.5-.4.9-.5l.4-.2.3.2 11.9 8.4 1.6-12c0-.4 0-.8 0-1.2 0-.2.1-.4.2-.5.7-.2 1 0 1.2.6z"/><path d="m49 10.6c-.8.6-1.7 1.2-2.6 1.7-.5.2-2 .8-4.7 2v-5.4c.2 0 .4-.1.6-.1h.2c.5-.1 1-.1 1.5-.1l6.1.8c-.3.4-.7.8-1.1 1.1m5.1-2.3c0-.3-.1-.4-.2-.6l-.1-.2-.3-.1c-.8-.2-1.9-.4-3.2-.7-.6-.1-1-.2-1.3-.2-.5-.1-.8-.1-1-.2l-6.1-.3c-2.1 0-3.3.9-3.3 2.6 0 .1 0 .3.1.5 0 .2.1.4.1.6s.1.5.1.6v.2 3c0 .3 0 .7.1 1.1 0 .2.1.4.1.5-1.3.5-2.4.8-3.1 1-.4.1-.6.2-.8.2l-1.4.4 1.2.8s.1.1.1.1c.1 0 .1.1.2.1.3.1.7.2 1.1.2.3 0 .7-.1 1.3-.2.4-.1.9-.2 1.5-.4 0 .1.1.2.1.4.1.6.3 1.3.5 2 0 .2.1.4.1.6s.1.4.1.6c.3 1 .6 1.7 1 2.3l.5.7.6-.6c.3-.3.4-.7.4-1.1v-.1l-.7-5.5h.1c.3-.1.6-.2.9-.3.2-.1.3-.1.5-.2.3-.1.6-.2.9-.3s.6-.2.8-.3c1.3-.5 2.3-1 2.8-1.3s.9-.5 1.3-.8c.2-.1.4-.3.6-.4.4-.2.8-.4 1.2-.6s.7-.5 1.1-.8c.2-.1.3-.2.5-.4.2-.1.3-.3.5-.4.8-.7 1.2-1.4 1.2-2-0-.1-0-.3-.1-.5"/><path d="m116.1 13.3c-.7.6-1.9 1.1-3.5 1.6-.9.3-1.8.5-2.6.7-.2 0-.3.1-.5.1-.9.2-1.7.2-2.5.2-.4 0-.9 0-1.3-.1-.1 0-.2 0-.3 0s-.2 0-.3-.1c-.7-.1-1.2-.3-1.4-.5h-.1c-.3-.2-.6-.4-.9-.7-.1-.1-.1-.1-.2-.2s-.1-.2-.2-.2c-.3-.5-.5-.8-.5-1s.1-.4.2-.7c.1-.1.2-.3.3-.5s.3-.3.5-.5c.3-.4.7-.7 1.1-1s.7-.5 1.1-.8c.5-.2 1.1-.5 1.9-.8.2-.1.3-.1.4-.2.1 0 .3-.1.5-.2.6-.2 1.2-.3 1.7-.4s.9-.1 1.3-.1c.3 0 .6 0 1 .1.1 0 .2 0 .2.1 0 0 .1 0 .2.1h.1c.4.1.7.2.8.3 0 .2.1.4.3.6 0 0 .1.1.1.1s.1.1.2.1l.4.2.3-.3c.2-.1.3-.2.5-.2s.5.1.7.2c.3.2.5.4.8.8.5.6.7 1.2.7 1.7-.1.5-.4 1-1 1.6m1.1-5.8c-1.3-.8-2.7-1.4-4.2-1.6-.1 0-.2 0-.2-.1-.2-.1-.5-.1-.8-.2-.6-.2-.9-.3-1.1-.3-1 0-2.2.2-3.4.5-.2.1-.5.2-.7.2-.2.1-.5.2-.7.3-1 .4-1.8.8-2.6 1.2-.8.5-1.5 1-2.2 1.5-.7.6-1.2 1.1-1.5 1.6-.1.1-.1.2-.2.3-.4.7-.6 1.3-.6 1.8 0 .6.1 1.1.3 1.7.2.5.6 1 1 1.6.5.5 1 .9 1.5 1.2.4.3.9.5 1.4.6.1.1.1.1.1.1l.2.2h.2c.6.1 1.2.2 1.7.3.6.1 1.1.1 1.6.1.7 0 1.4 0 1.9-.1.6 0 1-.1 1.4-.2.6-.1 1.3-.3 2.1-.6s1.8-.6 2.9-1.1c.9-.4 1.7-.9 2.4-1.4.1-.1.3-.2.4-.3s.2-.2.4-.3c1-1 1.5-2.1 1.5-3.2-0-1.4-.9-2.7-2.8-3.8"/></g></svg>